<?xml version="1.0" standalone="no"?>
<!DOCTYPE svg PUBLIC "-//W3C//DTD SVG 20010904//EN"
 "http://www.w3.org/TR/2001/REC-SVG-20010904/DTD/svg10.dtd">
<svg version="1.0" xmlns="http://www.w3.org/2000/svg"
 width="124.000000pt" height="160.000000pt" viewBox="0 0 124.000000 160.000000"
 preserveAspectRatio="xMidYMid meet">

<g transform="translate(0.000000,160.000000) scale(0.100000,-0.100000)"
fill="#000000" stroke="none">
<path d="M105 1401 c-3 -5 14 -22 37 -38 23 -15 51 -44 62 -63 20 -34 21 -49
21 -515 0 -463 -1 -481 -20 -519 -12 -22 -37 -47 -60 -61 -22 -12 -40 -28 -40
-36 0 -12 55 -14 350 -13 373 1 435 7 521 49 126 62 194 161 194 282 0 141
-74 232 -243 299 -72 28 -73 33 -17 54 108 41 169 119 177 224 14 168 -94 295
-285 335 -65 14 -688 15 -697 2z m633 -110 c81 -41 117 -112 116 -226 -1 -112
-47 -190 -124 -208 -61 -15 -141 29 -176 95 -17 33 -19 129 -2 146 7 7 20 12
30 12 14 0 18 -8 18 -37 0 -49 23 -73 72 -73 50 0 74 13 93 50 44 85 -15 198
-114 215 -62 10 -117 -10 -170 -63 -89 -89 -95 -214 -16 -318 40 -52 103 -88
226 -129 135 -45 183 -79 216 -152 21 -46 25 -65 21 -118 -10 -113 -71 -193
-168 -220 -21 -6 -18 0 22 41 57 60 87 124 88 186 0 111 -53 165 -215 218
-192 62 -279 147 -300 292 -19 126 87 275 218 309 47 12 120 3 165 -20z m-278
-589 c36 -17 98 -42 139 -57 126 -47 181 -116 167 -210 -18 -119 -141 -194
-239 -146 -54 27 -79 63 -85 121 -4 42 -1 49 28 73 36 31 56 33 88 11 34 -23
28 -44 -12 -44 -39 0 -47 -12 -34 -55 11 -40 33 -55 81 -55 56 0 97 43 97 102
0 85 -51 129 -210 179 -88 28 -148 80 -168 145 -20 67 -15 69 36 16 30 -33 70
-61 112 -80z"/>
</g>
</svg>
